<mxfile host="app.diagrams.net" modified="2024-04-29T13:53:17.593Z" agent="Mozilla/5.0 (Windows NT 10.0; Win64; x64) AppleWebKit/537.36 (KHTML, like Gecko) Chrome/124.0.0.0 Safari/537.36" etag="C2RzYH1uEf5SfJ0hT9Ys" version="24.3.1" type="github">
  <diagram name="Сторінка-1" id="OgtASf6FdW2n7skl9drL">
    <mxGraphModel dx="1018" dy="499" grid="1" gridSize="10" guides="1" tooltips="1" connect="1" arrows="1" fold="1" page="1" pageScale="1" pageWidth="827" pageHeight="1169" math="0" shadow="0">
      <root>
        <mxCell id="0" />
        <mxCell id="1" parent="0" />
        <mxCell id="JW0WZG6Wv-MjQA6rsJIU-3" style="edgeStyle=orthogonalEdgeStyle;rounded=0;orthogonalLoop=1;jettySize=auto;html=1;entryX=0.5;entryY=0;entryDx=0;entryDy=0;" edge="1" parent="1" source="JW0WZG6Wv-MjQA6rsJIU-1" target="JW0WZG6Wv-MjQA6rsJIU-2">
          <mxGeometry relative="1" as="geometry" />
        </mxCell>
        <mxCell id="JW0WZG6Wv-MjQA6rsJIU-1" value="Start" style="ellipse;whiteSpace=wrap;html=1;" vertex="1" parent="1">
          <mxGeometry x="140" y="230" width="120" height="60" as="geometry" />
        </mxCell>
        <mxCell id="JW0WZG6Wv-MjQA6rsJIU-8" style="edgeStyle=orthogonalEdgeStyle;rounded=0;orthogonalLoop=1;jettySize=auto;html=1;" edge="1" parent="1" source="JW0WZG6Wv-MjQA6rsJIU-2" target="JW0WZG6Wv-MjQA6rsJIU-4">
          <mxGeometry relative="1" as="geometry" />
        </mxCell>
        <mxCell id="JW0WZG6Wv-MjQA6rsJIU-2" value="&lt;div style=&quot;background-color: rgb(43, 43, 43); color: rgb(169, 183, 198); font-size: 8px;&quot;&gt;&lt;pre style=&quot;font-family: &amp;quot;JetBrains Mono&amp;quot;, monospace;&quot;&gt;&lt;span style=&quot;color:#cc7832;&quot;&gt;const int &lt;/span&gt;rows = &lt;span style=&quot;color:#6897bb;&quot;&gt;4&lt;/span&gt;&lt;span style=&quot;color:#cc7832;&quot;&gt;;&lt;br&gt;&lt;/span&gt;&lt;span style=&quot;color:#cc7832;&quot;&gt;const int &lt;/span&gt;cols = &lt;span style=&quot;color:#6897bb;&quot;&gt;4&lt;/span&gt;&lt;span style=&quot;color:#cc7832;&quot;&gt;;&lt;br&gt;&lt;/span&gt;&lt;span style=&quot;color:#cc7832;&quot;&gt;int &lt;/span&gt;myArray[rows][cols]&lt;span style=&quot;color:#cc7832;&quot;&gt;;&lt;/span&gt;&lt;/pre&gt;&lt;/div&gt;" style="rounded=0;whiteSpace=wrap;html=1;" vertex="1" parent="1">
          <mxGeometry x="140" y="300" width="120" height="60" as="geometry" />
        </mxCell>
        <mxCell id="JW0WZG6Wv-MjQA6rsJIU-9" style="edgeStyle=orthogonalEdgeStyle;rounded=0;orthogonalLoop=1;jettySize=auto;html=1;" edge="1" parent="1" source="JW0WZG6Wv-MjQA6rsJIU-4" target="JW0WZG6Wv-MjQA6rsJIU-5">
          <mxGeometry relative="1" as="geometry" />
        </mxCell>
        <mxCell id="JW0WZG6Wv-MjQA6rsJIU-4" value="&lt;div style=&quot;background-color:#2b2b2b;color:#a9b7c6&quot;&gt;&lt;pre style=&quot;font-family:&#39;JetBrains Mono&#39;,monospace;font-size:9.8pt;&quot;&gt;fillRandom&lt;/pre&gt;&lt;/div&gt;" style="shape=process;whiteSpace=wrap;html=1;backgroundOutline=1;" vertex="1" parent="1">
          <mxGeometry x="140" y="380" width="120" height="60" as="geometry" />
        </mxCell>
        <mxCell id="JW0WZG6Wv-MjQA6rsJIU-10" style="edgeStyle=orthogonalEdgeStyle;rounded=0;orthogonalLoop=1;jettySize=auto;html=1;" edge="1" parent="1" source="JW0WZG6Wv-MjQA6rsJIU-5" target="JW0WZG6Wv-MjQA6rsJIU-6">
          <mxGeometry relative="1" as="geometry" />
        </mxCell>
        <mxCell id="JW0WZG6Wv-MjQA6rsJIU-5" value="&lt;div style=&quot;background-color:#2b2b2b;color:#a9b7c6&quot;&gt;&lt;pre style=&quot;font-family:&#39;JetBrains Mono&#39;,monospace;font-size:9.8pt;&quot;&gt;sumOfEvenRows&lt;/pre&gt;&lt;/div&gt;" style="shape=process;whiteSpace=wrap;html=1;backgroundOutline=1;" vertex="1" parent="1">
          <mxGeometry x="140" y="460" width="120" height="60" as="geometry" />
        </mxCell>
        <mxCell id="JW0WZG6Wv-MjQA6rsJIU-11" style="edgeStyle=orthogonalEdgeStyle;rounded=0;orthogonalLoop=1;jettySize=auto;html=1;" edge="1" parent="1" source="JW0WZG6Wv-MjQA6rsJIU-6" target="JW0WZG6Wv-MjQA6rsJIU-7">
          <mxGeometry relative="1" as="geometry" />
        </mxCell>
        <mxCell id="JW0WZG6Wv-MjQA6rsJIU-6" value="&lt;div style=&quot;background-color:#2b2b2b;color:#a9b7c6&quot;&gt;&lt;pre style=&quot;font-family:&#39;JetBrains Mono&#39;,monospace;font-size:9.8pt;&quot;&gt;printArray&lt;/pre&gt;&lt;/div&gt;" style="shape=process;whiteSpace=wrap;html=1;backgroundOutline=1;" vertex="1" parent="1">
          <mxGeometry x="140" y="540" width="120" height="60" as="geometry" />
        </mxCell>
        <mxCell id="JW0WZG6Wv-MjQA6rsJIU-7" value="End" style="ellipse;whiteSpace=wrap;html=1;" vertex="1" parent="1">
          <mxGeometry x="140" y="620" width="120" height="60" as="geometry" />
        </mxCell>
        <mxCell id="JW0WZG6Wv-MjQA6rsJIU-28" style="edgeStyle=orthogonalEdgeStyle;rounded=0;orthogonalLoop=1;jettySize=auto;html=1;entryX=0.5;entryY=0;entryDx=0;entryDy=0;" edge="1" parent="1" source="JW0WZG6Wv-MjQA6rsJIU-12" target="JW0WZG6Wv-MjQA6rsJIU-15">
          <mxGeometry relative="1" as="geometry" />
        </mxCell>
        <mxCell id="JW0WZG6Wv-MjQA6rsJIU-12" value="&lt;div style=&quot;background-color:#2b2b2b;color:#a9b7c6&quot;&gt;&lt;pre style=&quot;font-family:&#39;JetBrains Mono&#39;,monospace;font-size:9.8pt;&quot;&gt;sumOfEvenRows&lt;/pre&gt;&lt;/div&gt;" style="shape=process;whiteSpace=wrap;html=1;backgroundOutline=1;" vertex="1" parent="1">
          <mxGeometry x="362.5" y="230" width="120" height="60" as="geometry" />
        </mxCell>
        <mxCell id="JW0WZG6Wv-MjQA6rsJIU-27" style="edgeStyle=orthogonalEdgeStyle;rounded=0;orthogonalLoop=1;jettySize=auto;html=1;" edge="1" parent="1" source="JW0WZG6Wv-MjQA6rsJIU-13" target="JW0WZG6Wv-MjQA6rsJIU-18">
          <mxGeometry relative="1" as="geometry">
            <Array as="points">
              <mxPoint x="300" y="435" />
              <mxPoint x="300" y="710" />
            </Array>
          </mxGeometry>
        </mxCell>
        <mxCell id="JW0WZG6Wv-MjQA6rsJIU-13" value="&lt;div style=&quot;background-color: rgb(43, 43, 43); color: rgb(169, 183, 198); font-size: 10px;&quot;&gt;&lt;pre style=&quot;font-family: &amp;quot;JetBrains Mono&amp;quot;, monospace;&quot;&gt;&lt;span style=&quot;color:#cc7832;&quot;&gt;for &lt;/span&gt;(&lt;span style=&quot;color:#cc7832;&quot;&gt;int &lt;/span&gt;i = &lt;span style=&quot;color:#6897bb;&quot;&gt;1&lt;/span&gt;&lt;span style=&quot;color:#cc7832;&quot;&gt;; &lt;/span&gt;&lt;/pre&gt;&lt;pre style=&quot;font-family: &amp;quot;JetBrains Mono&amp;quot;, monospace;&quot;&gt;i &amp;lt; rows&lt;span style=&quot;color:#cc7832;&quot;&gt;; &lt;/span&gt;i += &lt;span style=&quot;color:#6897bb;&quot;&gt;2&lt;/span&gt;) &lt;br&gt;&lt;/pre&gt;&lt;/div&gt;" style="shape=hexagon;perimeter=hexagonPerimeter2;whiteSpace=wrap;html=1;fixedSize=1;" vertex="1" parent="1">
          <mxGeometry x="352.5" y="400" width="130" height="70" as="geometry" />
        </mxCell>
        <mxCell id="JW0WZG6Wv-MjQA6rsJIU-21" style="edgeStyle=orthogonalEdgeStyle;rounded=0;orthogonalLoop=1;jettySize=auto;html=1;" edge="1" parent="1" source="JW0WZG6Wv-MjQA6rsJIU-14" target="JW0WZG6Wv-MjQA6rsJIU-17">
          <mxGeometry relative="1" as="geometry" />
        </mxCell>
        <mxCell id="JW0WZG6Wv-MjQA6rsJIU-26" style="edgeStyle=orthogonalEdgeStyle;rounded=0;orthogonalLoop=1;jettySize=auto;html=1;entryX=1;entryY=0.5;entryDx=0;entryDy=0;" edge="1" parent="1" source="JW0WZG6Wv-MjQA6rsJIU-14" target="JW0WZG6Wv-MjQA6rsJIU-13">
          <mxGeometry relative="1" as="geometry">
            <Array as="points">
              <mxPoint x="502" y="535" />
              <mxPoint x="502" y="435" />
            </Array>
          </mxGeometry>
        </mxCell>
        <mxCell id="JW0WZG6Wv-MjQA6rsJIU-14" value="&lt;div style=&quot;background-color: rgb(43, 43, 43); color: rgb(169, 183, 198); font-size: 11px;&quot;&gt;&lt;pre style=&quot;font-family: &amp;quot;JetBrains Mono&amp;quot;, monospace;&quot;&gt;&lt;span style=&quot;color:#cc7832;&quot;&gt;for &lt;/span&gt;(&lt;span style=&quot;color:#cc7832;&quot;&gt;int &lt;/span&gt;j = &lt;span style=&quot;color:#6897bb;&quot;&gt;0&lt;/span&gt;&lt;span style=&quot;color:#cc7832;&quot;&gt;;&lt;/span&gt;&lt;/pre&gt;&lt;pre style=&quot;font-family: &amp;quot;JetBrains Mono&amp;quot;, monospace;&quot;&gt;&lt;span style=&quot;color:#cc7832;&quot;&gt; &lt;/span&gt;j &amp;lt; cols&lt;span style=&quot;color:#cc7832;&quot;&gt;; &lt;/span&gt;j++)&lt;/pre&gt;&lt;/div&gt;" style="shape=hexagon;perimeter=hexagonPerimeter2;whiteSpace=wrap;html=1;fixedSize=1;" vertex="1" parent="1">
          <mxGeometry x="352.5" y="500" width="135" height="70" as="geometry" />
        </mxCell>
        <mxCell id="JW0WZG6Wv-MjQA6rsJIU-15" value="&lt;div style=&quot;background-color: rgb(43, 43, 43); color: rgb(169, 183, 198); font-size: 8px;&quot;&gt;&lt;pre style=&quot;font-family: &amp;quot;JetBrains Mono&amp;quot;, monospace;&quot;&gt;&lt;div&gt;&lt;pre style=&quot;font-family:&#39;JetBrains Mono&#39;,monospace;font-size:9.8pt;&quot;&gt;&lt;span style=&quot;color:#cc7832;&quot;&gt;int &lt;/span&gt;sum = &lt;span style=&quot;color:#6897bb;&quot;&gt;0&lt;/span&gt;&lt;span style=&quot;color:#cc7832;&quot;&gt;;&lt;br&gt;&lt;/span&gt;&lt;/pre&gt;&lt;/div&gt;&lt;/pre&gt;&lt;/div&gt;" style="rounded=0;whiteSpace=wrap;html=1;" vertex="1" parent="1">
          <mxGeometry x="362.5" y="310" width="120" height="60" as="geometry" />
        </mxCell>
        <mxCell id="JW0WZG6Wv-MjQA6rsJIU-23" style="edgeStyle=orthogonalEdgeStyle;rounded=0;orthogonalLoop=1;jettySize=auto;html=1;entryX=0;entryY=0.5;entryDx=0;entryDy=0;" edge="1" parent="1" source="JW0WZG6Wv-MjQA6rsJIU-17" target="JW0WZG6Wv-MjQA6rsJIU-14">
          <mxGeometry relative="1" as="geometry">
            <Array as="points">
              <mxPoint x="332" y="630" />
              <mxPoint x="332" y="535" />
            </Array>
          </mxGeometry>
        </mxCell>
        <mxCell id="JW0WZG6Wv-MjQA6rsJIU-17" value="&lt;div style=&quot;background-color: rgb(43, 43, 43); color: rgb(169, 183, 198); font-size: 11px;&quot;&gt;&lt;pre style=&quot;font-family: &amp;quot;JetBrains Mono&amp;quot;, monospace;&quot;&gt;sum += arr[i][j]&lt;span style=&quot;color:#cc7832;&quot;&gt;;&lt;br&gt;&lt;/span&gt;&lt;/pre&gt;&lt;/div&gt;" style="rounded=0;whiteSpace=wrap;html=1;" vertex="1" parent="1">
          <mxGeometry x="360" y="600" width="120" height="60" as="geometry" />
        </mxCell>
        <mxCell id="JW0WZG6Wv-MjQA6rsJIU-18" value="End" style="ellipse;whiteSpace=wrap;html=1;" vertex="1" parent="1">
          <mxGeometry x="360" y="680" width="120" height="60" as="geometry" />
        </mxCell>
        <mxCell id="JW0WZG6Wv-MjQA6rsJIU-24" style="edgeStyle=orthogonalEdgeStyle;rounded=0;orthogonalLoop=1;jettySize=auto;html=1;entryX=0.469;entryY=-0.002;entryDx=0;entryDy=0;entryPerimeter=0;" edge="1" parent="1" source="JW0WZG6Wv-MjQA6rsJIU-13" target="JW0WZG6Wv-MjQA6rsJIU-14">
          <mxGeometry relative="1" as="geometry" />
        </mxCell>
        <mxCell id="JW0WZG6Wv-MjQA6rsJIU-29" style="edgeStyle=orthogonalEdgeStyle;rounded=0;orthogonalLoop=1;jettySize=auto;html=1;entryX=0.543;entryY=-0.019;entryDx=0;entryDy=0;entryPerimeter=0;" edge="1" parent="1" source="JW0WZG6Wv-MjQA6rsJIU-15" target="JW0WZG6Wv-MjQA6rsJIU-13">
          <mxGeometry relative="1" as="geometry" />
        </mxCell>
      </root>
    </mxGraphModel>
  </diagram>
</mxfile>
